<svg width="48" height="48" viewBox="0 0 48 48" fill="none" xmlns="http://www.w3.org/2000/svg">
<path d="M23 9.7V27.1C23 28.7023 21.7134 30 20.125 30H2.86062C1.27219 30 0 28.7023 0 27.1L0.0143753 3.9C0.0143753 2.29775 1.28656 1 2.875 1H14.375L23 9.7Z" fill="#007BFF"/>
<path d="M23 9.7V27.1C23 28.7023 21.7134 30 20.125 30H2.86062C1.27219 30 0 28.7023 0 27.1L0.0143753 3.9C0.0143753 2.29775 1.28656 1 2.875 1H14.375L23 9.7Z" fill="#007BFF"/>
<path d="M21 11L13 3V11H21Z" fill="white"/>
<path d="M5 11L10 15.5582L5.19848 20" stroke="white" stroke-width="3" stroke-linecap="round" stroke-linejoin="round"/>
<path d="M6 24H18" stroke="white" stroke-width="3" stroke-linecap="round" stroke-linejoin="round"/>
<path d="M47 24.7V42.1C47 43.7023 45.7134 45 44.125 45H26.8606C25.2722 45 24 43.7023 24 42.1L24.0144 18.9C24.0144 17.2978 25.2866 16 26.875 16H38.375L47 24.7Z" fill="#007BFF"/>
<path d="M47 24.7V42.1C47 43.7023 45.7134 45 44.125 45H26.8606C25.2722 45 24 43.7023 24 42.1L24.0144 18.9C24.0144 17.2978 25.2866 16 26.875 16H38.375L47 24.7Z" fill="#007BFF"/>
<path d="M45 26L37 18V26H45Z" fill="white"/>
<path d="M29 26L34 30.5582L29.1985 35" stroke="white" stroke-width="3" stroke-linecap="round" stroke-linejoin="round"/>
<path d="M30 39H42" stroke="white" stroke-width="3" stroke-linecap="round" stroke-linejoin="round"/>
<path d="M14.2944 19.0696C13.9232 19.0696 13.5926 19.0058 13.3026 18.8782C13.0142 18.7489 12.7863 18.5716 12.619 18.3462C12.4532 18.1192 12.3679 17.8574 12.3629 17.5607H13.4467C13.4534 17.685 13.494 17.7944 13.5685 17.8888C13.6448 17.9817 13.7459 18.0537 13.8718 18.1051C13.9978 18.1565 14.1394 18.1822 14.2969 18.1822C14.4609 18.1822 14.6059 18.1532 14.7319 18.0952C14.8578 18.0372 14.9564 17.9568 15.0277 17.854C15.099 17.7513 15.1346 17.6328 15.1346 17.4986C15.1346 17.3627 15.0965 17.2425 15.0202 17.1381C14.9457 17.0321 14.8379 16.9492 14.6971 16.8896C14.5579 16.8299 14.3922 16.8001 14.1999 16.8001H13.7251V16.0096H14.1999C14.3623 16.0096 14.5057 15.9814 14.63 15.9251C14.7559 15.8687 14.8537 15.7908 14.9233 15.6914C14.9929 15.5903 15.0277 15.4727 15.0277 15.3384C15.0277 15.2108 14.997 15.099 14.9357 15.0028C14.8761 14.9051 14.7915 14.8288 14.6822 14.7741C14.5745 14.7195 14.4485 14.6921 14.3043 14.6921C14.1585 14.6921 14.0251 14.7186 13.9041 14.7717C13.7831 14.823 13.6862 14.8968 13.6133 14.9929C13.5404 15.089 13.5014 15.2017 13.4964 15.331H12.4648C12.4698 15.0376 12.5535 14.7791 12.7159 14.5554C12.8783 14.3317 13.0971 14.1568 13.3722 14.0309C13.6489 13.9033 13.9613 13.8395 14.3093 13.8395C14.6606 13.8395 14.968 13.9033 15.2315 14.0309C15.495 14.1585 15.6997 14.3308 15.8455 14.5479C15.993 14.7634 16.0659 15.0053 16.0643 15.2738C16.0659 15.5588 15.9773 15.7966 15.7983 15.9872C15.621 16.1778 15.3898 16.2988 15.1048 16.3501V16.3899C15.4793 16.438 15.7643 16.5681 15.9599 16.7802C16.1571 16.9906 16.2549 17.2541 16.2532 17.5707C16.2549 17.8607 16.1712 18.1184 16.0021 18.3438C15.8348 18.5691 15.6036 18.7464 15.3086 18.8757C15.0136 19.005 14.6755 19.0696 14.2944 19.0696ZM17.0269 19V18.2244L18.839 16.5465C18.9932 16.3974 19.1224 16.2631 19.2268 16.1438C19.3329 16.0245 19.4133 15.9077 19.468 15.7933C19.5226 15.6773 19.55 15.5522 19.55 15.418C19.55 15.2688 19.516 15.1404 19.4481 15.0327C19.3801 14.9233 19.2873 14.8396 19.1697 14.7816C19.052 14.7219 18.9186 14.6921 18.7694 14.6921C18.6137 14.6921 18.4778 14.7236 18.3618 14.7866C18.2458 14.8496 18.1563 14.9399 18.0933 15.0575C18.0303 15.1752 17.9988 15.3152 17.9988 15.4776H16.9772C16.9772 15.1445 17.0526 14.8554 17.2034 14.6101C17.3542 14.3648 17.5655 14.1751 17.8373 14.0408C18.109 13.9066 18.4223 13.8395 18.7769 13.8395C19.1415 13.8395 19.4588 13.9041 19.729 14.0334C20.0007 14.161 20.212 14.3383 20.3628 14.5653C20.5136 14.7924 20.589 15.0526 20.589 15.3459C20.589 15.5381 20.5509 15.7279 20.4747 15.9151C20.4001 16.1024 20.2667 16.3104 20.0745 16.5391C19.8823 16.7661 19.6113 17.0387 19.2616 17.3569L18.5184 18.0852V18.12H20.6562V19H17.0269Z" fill="white"/>
<path d="M38.3665 35.0696C38.1046 35.0679 37.8519 35.024 37.6083 34.9379C37.3664 34.8517 37.1493 34.7116 36.957 34.5178C36.7648 34.3239 36.6123 34.067 36.4996 33.7472C36.3886 33.4273 36.3331 33.0346 36.3331 32.5689C36.3348 32.1413 36.3836 31.7594 36.4798 31.4229C36.5775 31.0849 36.7167 30.7982 36.8974 30.5629C37.0797 30.3275 37.2976 30.1486 37.5511 30.0259C37.8047 29.9016 38.0889 29.8395 38.4038 29.8395C38.7435 29.8395 39.0434 29.9058 39.3036 30.0384C39.5638 30.1693 39.7726 30.3474 39.93 30.5728C40.0891 30.7982 40.1853 31.0509 40.2184 31.331H39.157C39.1155 31.1536 39.0285 31.0144 38.896 30.9134C38.7634 30.8123 38.5993 30.7617 38.4038 30.7617C38.0723 30.7617 37.8204 30.9059 37.6481 31.1942C37.4774 31.4826 37.3904 31.8745 37.3871 32.37H37.4219C37.4981 32.2192 37.6009 32.0908 37.7301 31.9847C37.861 31.877 38.0094 31.795 38.1751 31.7386C38.3424 31.6806 38.5189 31.6516 38.7045 31.6516C39.0062 31.6516 39.2746 31.7229 39.5099 31.8654C39.7453 32.0063 39.9309 32.2002 40.0668 32.4471C40.2027 32.694 40.2706 32.9766 40.2706 33.2947C40.2706 33.6394 40.1902 33.946 40.0295 34.2145C39.8704 34.483 39.6475 34.6934 39.3608 34.8459C39.0758 34.9967 38.7443 35.0713 38.3665 35.0696ZM38.3615 34.2244C38.5272 34.2244 38.6755 34.1847 38.8065 34.1051C38.9374 34.0256 39.0401 33.9179 39.1147 33.782C39.1893 33.6461 39.2266 33.4936 39.2266 33.3246C39.2266 33.1555 39.1893 33.0039 39.1147 32.8697C39.0418 32.7354 38.9407 32.6286 38.8114 32.549C38.6822 32.4695 38.5347 32.4297 38.369 32.4297C38.2447 32.4297 38.1295 32.4529 38.0234 32.4993C37.919 32.5457 37.8271 32.6103 37.7475 32.6932C37.6696 32.776 37.6083 32.8722 37.5636 32.9815C37.5188 33.0893 37.4964 33.2044 37.4964 33.3271C37.4964 33.4911 37.5337 33.6411 37.6083 33.777C37.6845 33.9129 37.7873 34.0214 37.9165 34.1026C38.0475 34.1838 38.1958 34.2244 38.3615 34.2244ZM40.9567 34.1051V33.2575L43.082 29.9091H43.8129V31.0824H43.3803L42.0405 33.2028V33.2425H45.0607V34.1051H40.9567ZM43.4002 35V33.8466L43.4201 33.4712V29.9091H44.4293V35H43.4002Z" fill="white"/>
</svg>
